<svg width="976" height="976" viewBox="0 0 976 976" fill="none" xmlns="http://www.w3.org/2000/svg">
<circle cx="488" cy="488" r="488" fill="#FEA56B"/>
<path d="M401.5 553C401.5 572.667 382.333 582.5 344 582.5C335.667 582.5 330.667 578.333 329 570C327.667 561.333 327 549.333 327 534C327 501.667 333.5 461.667 346.5 414C368.167 335.333 391.333 289 416 275C419.333 273 423 272 427 272C431 272 433 278.5 433 291.5C433 304.5 432.333 316 431 326C428.333 346 423.5 371.833 416.5 403.5C409.833 435.167 406.5 453.833 406.5 459.5L401.5 553ZM435.5 418.5C435.5 414.167 437.833 411.333 442.5 410C447.5 408.667 453.667 407.5 461 406.5C468.333 405.167 476.333 403.333 485 401C493.667 398.667 501.667 394.333 509 388C526 373.333 534.5 348.833 534.5 314.5C534.5 292.5 527 275.667 512 264C497.333 252.333 476 246.5 448 246.5C420.333 246.5 394.333 252.333 370 264C361 268.333 352.833 272.333 345.5 276C338.5 279.667 332 281.5 326 281.5C320 281.5 317 279.667 317 276C317 270.333 322.5 261 333.5 248C344.5 236 361.833 224.833 385.5 214.5C409.5 204.167 434.667 199 461 199C510.667 198.667 549.333 210.333 577 234C601 254.667 613 281.5 613 314.5C613 347.167 601.167 376.5 577.5 402.5C553.833 428.167 524.167 441 488.5 441C453.167 441 435.5 433.5 435.5 418.5Z" fill="white"/>
<path d="M496.5 797C496.5 816.667 477.333 826.5 439 826.5C430.667 826.5 425.667 822.333 424 814C422.667 805.333 422 793.333 422 778C422 745.667 428.5 705.667 441.5 658C463.167 579.333 486.333 533 511 519C514.333 517 518 516 522 516C526 516 528 522.5 528 535.5C528 548.5 527.333 560 526 570C523.333 590 518.5 615.833 511.5 647.5C504.833 679.167 501.5 697.833 501.5 703.5L496.5 797ZM530.5 662.5C530.5 658.167 532.833 655.333 537.5 654C542.5 652.667 548.667 651.5 556 650.5C563.333 649.167 571.333 647.333 580 645C588.667 642.667 596.667 638.333 604 632C621 617.333 629.5 592.833 629.5 558.5C629.5 536.5 622 519.667 607 508C592.333 496.333 571 490.5 543 490.5C515.333 490.5 489.333 496.333 465 508C456 512.333 447.833 516.333 440.5 520C433.5 523.667 427 525.5 421 525.5C415 525.5 412 523.667 412 520C412 514.333 417.5 505 428.5 492C439.5 480 456.833 468.833 480.5 458.5C504.5 448.167 529.667 443 556 443C605.667 442.667 644.333 454.333 672 478C696 498.667 708 525.5 708 558.5C708 591.167 696.167 620.5 672.5 646.5C648.833 672.167 619.167 685 583.5 685C548.167 685 530.5 677.5 530.5 662.5Z" fill="white"/>
</svg>
